<svg width="638" height="846" viewBox="0 0 638 846" fill="none" xmlns="http://www.w3.org/2000/svg">
<g clip-path="url(#clip0_168_237)">
<path opacity="0.980392" d="M226.981 60.9723H227.231H285.727C285.977 60.889 286.06 60.9723 285.977 61.2222C285.977 61.8885 285.977 62.305 285.977 62.4716H284.477V63.9709H282.977C282.977 64.2208 282.977 64.8039 282.977 65.7201L282.477 66.2199C282.477 66.8863 282.477 67.3027 282.477 67.4693H280.977V68.9686H279.477V69.2185V72.2172V72.4671H277.977V72.7169V75.2158V75.4657H276.477C276.477 75.6323 276.477 76.0488 276.477 76.7151L275.977 77.2149C275.977 78.1311 275.977 78.7142 275.977 78.9641H274.477V79.214V81.7129V81.9627H272.978V82.2126V86.7106C273.061 86.9605 272.978 87.0438 272.728 86.9605C272.061 86.9605 271.644 86.9605 271.478 86.9605V87.2104V90.209L270.978 90.7088C270.978 91.3751 270.978 91.7916 270.978 91.9582H269.478V92.2081V98.2054V98.4552C269.311 98.4552 268.895 98.4552 268.228 98.4552C267.978 98.372 267.895 98.4552 267.978 98.7051V106.702V106.951C267.811 106.951 267.395 106.951 266.728 106.951C266.478 106.868 266.395 106.951 266.478 107.201V138.187V138.437C266.645 138.437 267.061 138.437 267.728 138.437C267.978 138.354 268.061 138.437 267.978 138.687V147.683C267.895 147.933 267.978 148.016 268.228 147.933C268.895 147.933 269.311 147.933 269.478 147.933V148.183V154.18C269.395 154.43 269.478 154.513 269.728 154.43C270.394 154.43 270.811 154.43 270.978 154.43C270.978 154.596 270.978 155.013 270.978 155.679L271.478 156.179V159.178V159.428H272.978V159.677V164.175C272.894 164.425 272.978 164.509 273.228 164.425C273.894 164.425 274.311 164.425 274.477 164.425V164.675V167.174C274.771 167.84 275.271 168.09 275.977 167.924C275.977 168.09 275.977 168.507 275.977 169.173L276.477 169.673C276.477 170.339 276.477 170.756 276.477 170.922H277.477C277.477 171.089 277.477 171.505 277.477 172.172L277.977 172.672C277.977 173.588 277.977 174.171 277.977 174.421H279.477V174.671V177.169V177.419C279.644 177.419 280.06 177.419 280.727 177.419C280.977 177.336 281.06 177.419 280.977 177.669V180.168L281.727 180.918C282.393 180.918 282.81 180.918 282.977 180.918V182.417H283.977C283.977 182.584 283.977 183 283.977 183.667L284.477 184.166C284.477 185.083 284.477 185.666 284.477 185.916H285.977V187.415H287.476C287.476 187.581 287.476 187.998 287.476 188.664L287.976 189.164C287.976 189.83 287.976 190.247 287.976 190.413H288.726L289.476 191.163C289.476 191.829 289.476 192.246 289.476 192.413H290.976V193.912H292.476C292.476 194.162 292.476 194.745 292.476 195.661L292.976 196.161C292.976 196.827 292.976 197.244 292.976 197.41H294.476V198.91H294.726H297.226L297.976 198.16V197.41H298.725L299.475 196.661C299.475 195.994 299.475 195.578 299.475 195.411H300.975V193.912H302.475C302.475 193.745 302.475 193.329 302.475 192.662C302.768 191.996 303.268 191.746 303.975 191.913C303.975 191.746 303.975 191.33 303.975 190.663L304.475 190.164C304.475 189.497 304.475 189.081 304.475 188.914H305.975V187.415H307.475V187.165V184.666V184.416H308.975V182.417H310.474C310.474 182.251 310.474 181.834 310.474 181.168L310.974 180.668C310.974 180.002 310.974 179.585 310.974 179.418H311.724L312.474 178.669V176.17V175.92H313.974V173.921H315.474V173.671V171.172V170.922H316.974C316.974 170.756 316.974 170.339 316.974 169.673L317.474 169.173V166.174V165.925H318.974V165.675V163.176V162.926H320.474V162.676V159.677L320.974 159.178C320.974 158.511 320.974 158.095 320.974 157.928H321.974C321.974 157.678 321.974 157.095 321.974 156.179L322.474 155.679V153.18V152.931H323.973V152.681V146.683V146.433C324.14 146.433 324.557 146.433 325.223 146.433C325.473 146.517 325.557 146.433 325.473 146.184V138.187L325.973 137.687C325.973 137.021 325.973 136.605 325.973 136.438H326.973V136.188V107.201V106.951C326.806 106.951 326.39 106.951 325.723 106.951C325.473 107.035 325.39 106.951 325.473 106.702V98.7051V98.4552C325.307 98.4552 324.89 98.4552 324.223 98.4552C323.973 98.5385 323.89 98.4552 323.973 98.2054V92.2081C324.057 91.9582 323.973 91.8749 323.723 91.9582C323.057 91.9582 322.64 91.9582 322.474 91.9582V91.7083V89.2094L321.974 88.7097C321.974 87.7934 321.974 87.2104 321.974 86.9605H320.474V86.7106V83.7119V83.4621H318.974V83.2122V79.214C319.057 78.9641 318.974 78.8808 318.724 78.9641C318.057 78.9641 317.641 78.9641 317.474 78.9641C317.474 78.7142 317.474 78.1311 317.474 77.2149L316.974 76.7151C316.974 76.0488 316.974 75.6323 316.974 75.4657H315.474V75.2158V72.7169V72.4671C315.307 72.4671 314.891 72.4671 314.224 72.4671C313.974 72.5503 313.891 72.4671 313.974 72.2172V69.2185V68.9686H312.474V67.4693H310.974C310.974 67.2194 310.974 66.6364 310.974 65.7201L310.474 65.2203C310.474 64.554 310.474 64.1375 310.474 63.9709H308.975V63.721V61.2222V60.9723H309.225H364.72H364.97V62.4716C365.137 62.4716 365.553 62.4716 366.22 62.4716C366.47 62.3883 366.553 62.4716 366.47 62.7215V101.704V101.954C366.303 101.954 365.887 101.954 365.22 101.954C364.97 101.87 364.887 101.954 364.97 102.204V108.201V108.451H365.22H368.22H368.47V106.951H368.72H372.719C372.969 107.035 373.053 106.951 372.969 106.702C372.969 106.035 372.969 105.619 372.969 105.452C373.219 105.452 373.803 105.452 374.719 105.452L375.219 104.952C375.886 104.952 376.302 104.952 376.469 104.952V103.453H377.969V101.954H379.969V100.454C380.135 100.454 380.552 100.454 381.219 100.454L381.719 99.9546C382.385 99.9546 382.802 99.9546 382.969 99.9546V98.4552H384.468V96.9559H385.968C385.968 96.7893 385.968 96.3729 385.968 95.7065L386.468 95.2067C386.468 94.5404 386.468 94.1239 386.468 93.9573H387.968V91.9582H389.468V90.4589H390.968C390.968 90.2923 390.968 89.8758 390.968 89.2094L391.468 88.7097C391.468 87.7934 391.468 87.2104 391.468 86.9605H392.968V86.7106V83.7119V83.4621H394.468V83.2122V79.214L394.968 78.7142C394.968 78.0479 394.968 77.6314 394.968 77.4648H395.967V77.2149V74.2163L396.467 73.7165V70.7178V70.468H397.467C397.467 70.3014 397.467 69.8849 397.467 69.2185C397.384 68.9686 397.467 68.8853 397.717 68.9686H446.713H446.963V69.2185V73.7165V73.9664C446.797 73.9664 446.38 73.9664 445.713 73.9664C445.463 73.8831 445.38 73.9664 445.463 74.2163V80.2135C445.547 80.4634 445.463 80.5467 445.213 80.4634C444.547 80.4634 444.13 80.4634 443.964 80.4634V80.7133V85.2113C444.047 85.4612 443.964 85.5444 443.714 85.4612C443.047 85.4612 442.63 85.4612 442.464 85.4612V85.711V88.2099L441.714 88.9596C441.047 88.9596 440.63 88.9596 440.464 88.9596V89.2094V91.7083C440.547 91.9582 440.464 92.0415 440.214 91.9582C439.547 91.9582 439.131 91.9582 438.964 91.9582V92.2081V94.707V94.9568H437.464V96.9559H435.464V98.955H434.464V99.7047L433.964 100.204C433.964 101.121 433.964 101.704 433.964 101.954H432.464V103.453C432.298 103.453 431.881 103.453 431.215 103.453L430.465 104.203C430.465 104.869 430.465 105.285 430.465 105.452H428.965V106.951H427.465V108.451H425.965V109.95C425.798 109.95 425.382 109.95 424.715 109.95C424.048 110.24 423.799 110.74 423.965 111.449C423.799 111.449 423.382 111.449 422.715 111.449L422.215 111.949C421.549 111.949 421.132 111.949 420.965 111.949V113.448H419.466V114.948C419.216 114.948 418.632 114.948 417.716 114.948L417.216 115.448C416.549 115.448 416.132 115.448 415.966 115.448V116.947H414.466V117.697L413.716 118.446H411.216H410.966V119.945H410.716H407.717C407.467 119.862 407.383 119.945 407.467 120.195C407.467 120.862 407.467 121.278 407.467 121.445H407.217H404.717L404.217 121.945C403.55 121.945 403.134 121.945 402.967 121.945V122.694L402.217 123.444H398.217H397.967C397.967 123.61 397.967 124.027 397.967 124.693C398.051 124.943 397.967 125.027 397.717 124.943H392.718H392.468C392.468 125.11 392.468 125.526 392.468 126.193C392.551 126.443 392.468 126.526 392.218 126.443H385.218C384.552 126.732 384.302 127.232 384.468 127.942H384.218H376.719L376.219 128.442H373.219C373.053 127.942 372.553 127.775 371.719 127.942L371.22 128.442H361.72C361.637 128.025 361.304 127.859 360.72 127.942L360.22 128.442C359.304 128.442 358.721 128.442 358.471 128.442V128.692V132.69C358.554 132.94 358.471 133.023 358.221 132.94C357.554 132.94 357.137 132.94 356.971 132.94V133.189V136.188L356.471 136.688C356.471 137.354 356.471 137.771 356.471 137.937H354.971V138.187V141.186V141.436C354.804 141.436 354.388 141.436 353.721 141.436C353.471 141.352 353.388 141.436 353.471 141.686V145.684V145.934H351.971V146.184V149.182V149.432C351.804 149.432 351.388 149.432 350.721 149.432L349.971 150.182V152.681V152.931H348.471V153.18V155.679V155.929H346.971V157.928H345.472C345.472 158.095 345.472 158.511 345.472 159.178L344.972 159.677C344.972 160.344 344.972 160.76 344.972 160.927H343.472V162.926H341.972V163.176V165.675V165.925H340.472C340.472 166.174 340.472 166.758 340.472 167.674L339.972 168.174V168.923C339.265 168.757 338.766 169.007 338.472 169.673C338.472 170.339 338.472 170.756 338.472 170.922H336.972V172.422H337.222H340.222H340.472C340.472 172.255 340.472 171.839 340.472 171.172C340.389 170.922 340.472 170.839 340.722 170.922H348.221H348.471C348.471 170.756 348.471 170.339 348.471 169.673C348.388 169.423 348.471 169.34 348.721 169.423H354.721L355.221 168.923C356.137 168.923 356.721 168.923 356.971 168.923V167.924H357.221H361.22L361.72 167.424H387.718H387.968C387.968 167.257 387.968 166.841 387.968 166.174C387.885 165.925 387.968 165.841 388.218 165.925H399.217H399.467C399.467 165.758 399.467 165.342 399.467 164.675C399.384 164.425 399.467 164.342 399.717 164.425H404.217L404.717 163.926C405.383 163.926 405.8 163.926 405.967 163.926V162.926C406.217 162.926 406.8 162.926 407.717 162.926L408.216 162.426H410.716H410.966V160.927H411.216H414.216H414.466V159.428H414.716H417.716H417.966V157.928H418.216H420.715H420.965V156.429C421.132 156.429 421.549 156.429 422.215 156.429L422.715 155.929C423.382 155.929 423.799 155.929 423.965 155.929V154.43H424.215H427.215H427.465V152.931H428.965C428.965 152.764 428.965 152.347 428.965 151.681L429.715 150.931C430.381 150.931 430.798 150.931 430.965 150.931V149.432H432.464V147.933H433.964V146.433H435.464C435.464 146.267 435.464 145.85 435.464 145.184L436.214 144.434C436.881 144.434 437.297 144.434 437.464 144.434V144.184V141.686V141.436H438.964V139.437H440.464V139.187V136.688V136.438C440.63 136.438 441.047 136.438 441.714 136.438L442.464 135.688V133.189V132.94H443.964V132.69V128.692C443.88 128.442 443.964 128.358 444.214 128.442C444.88 128.442 445.297 128.442 445.463 128.442V128.192V124.693L445.963 124.194V123.444H446.963C446.963 123.277 446.963 122.861 446.963 122.194L447.713 121.445H509.208H509.458V121.695V124.693V124.943C509.291 124.943 508.875 124.943 508.208 124.943C507.958 124.86 507.875 124.943 507.958 125.193V131.19C508.042 131.44 507.958 131.524 507.708 131.44C507.042 131.44 506.625 131.44 506.458 131.44V131.69V134.689L505.958 135.189V135.938H504.959C504.959 136.188 504.959 136.771 504.959 137.687L504.459 138.187C504.459 139.103 504.459 139.687 504.459 139.936H502.959V140.186V142.685V142.935C502.792 142.935 502.375 142.935 501.709 142.935C501.459 142.852 501.375 142.935 501.459 143.185V146.184V146.433H499.959V146.683V149.182V149.432C499.792 149.432 499.376 149.432 498.709 149.432L497.959 150.182C497.959 150.848 497.959 151.265 497.959 151.431H496.959V152.181L496.459 152.681C496.459 153.597 496.459 154.18 496.459 154.43H494.959V155.929H493.459C493.459 156.096 493.459 156.512 493.459 157.179L492.71 157.928C492.043 157.928 491.626 157.928 491.46 157.928V159.428H489.96V160.927H488.46C488.46 161.093 488.46 161.51 488.46 162.176L487.71 162.926H486.96V163.676L486.21 164.425C485.543 164.425 485.127 164.425 484.96 164.425V165.925H483.46V167.424C483.294 167.424 482.877 167.424 482.21 167.424C481.544 167.717 481.294 168.217 481.46 168.923H480.711L480.211 169.423C479.294 169.423 478.711 169.423 478.461 169.423V170.922H476.461V172.422H476.211H473.711H473.461V173.921C473.294 173.921 472.878 173.921 472.211 173.921L471.711 174.421C470.795 174.421 470.211 174.421 469.961 174.421V175.92H469.711H467.212H466.962V177.419H466.712H463.712H463.462C463.462 177.586 463.462 178.002 463.462 178.669C463.545 178.919 463.462 179.002 463.212 178.919H460.212L459.712 179.418H458.962V180.168L458.212 180.918H453.713H453.463C453.463 181.084 453.463 181.501 453.463 182.167C453.546 182.417 453.463 182.5 453.213 182.417H447.713C447.463 182.334 447.38 182.417 447.463 182.667C447.463 183.333 447.463 183.75 447.463 183.916H447.713H455.213L455.713 184.416C456.379 184.416 456.796 184.416 456.962 184.416C456.796 185.126 457.046 185.626 457.712 185.916H470.211H470.461V186.915H471.211L471.711 187.415H478.211H478.461C478.461 187.248 478.461 186.832 478.461 186.165C478.377 185.916 478.461 185.832 478.711 185.916H486.71L487.21 185.416C487.877 185.416 488.293 185.416 488.46 185.416V183.916H488.71H493.209H493.459V182.417H493.709H496.709H496.959V180.918H497.209H499.709H499.959V179.418C500.126 179.418 500.542 179.418 501.209 179.418L501.709 178.919C502.375 178.919 502.792 178.919 502.959 178.919V177.419H503.209H506.208H506.458V175.92H507.958V174.421C508.125 174.421 508.542 174.421 509.208 174.421L509.958 173.671C509.958 173.005 509.958 172.588 509.958 172.422H511.458V170.922H512.958V169.423H514.458V167.424H515.958C515.958 167.257 515.958 166.841 515.958 166.174L516.458 165.675C516.458 165.008 516.458 164.592 516.458 164.425H517.957V164.175V161.177V160.927H519.457C519.457 160.76 519.457 160.344 519.457 159.677C519.374 159.428 519.457 159.344 519.707 159.428H575.203H575.453C575.453 159.677 575.453 160.261 575.453 161.177L574.953 161.677V162.426H573.953V162.676V165.675L573.453 166.174C573.453 166.841 573.453 167.257 573.453 167.424C572.746 167.257 572.246 167.507 571.953 168.174V170.672V170.922H570.453V171.172V174.171V174.421H568.953V174.671V177.169V177.419H567.453C567.453 177.669 567.453 178.252 567.453 179.169L566.953 179.668C566.953 180.335 566.953 180.751 566.953 180.918H565.454V181.168V183.667V183.916H563.954V185.916H562.454V187.415H560.954C560.954 187.581 560.954 187.998 560.954 188.664L560.204 189.414C559.537 189.414 559.121 189.414 558.954 189.414V189.664V191.663V191.913C558.787 191.913 558.371 191.913 557.704 191.913L556.954 192.662C556.954 193.329 556.954 193.745 556.954 193.912H555.454V195.411C555.288 195.411 554.871 195.411 554.204 195.411L553.705 195.911C553.038 195.911 552.621 195.911 552.455 195.911V197.41H550.955V198.91H548.955V200.409H547.455V201.908C547.288 201.908 546.872 201.908 546.205 201.908L545.705 202.408C545.039 202.408 544.622 202.408 544.455 202.408V203.158L543.705 203.907C543.039 203.907 542.622 203.907 542.455 203.907V205.407H542.205H539.706H539.456V206.906H539.206H536.206H535.956V208.905H535.706H532.706C532.456 208.822 532.373 208.905 532.456 209.155C532.456 209.821 532.456 210.238 532.456 210.404H532.206H529.207H528.957V211.904H528.707H524.707C524.457 211.82 524.374 211.904 524.457 212.154C524.457 212.82 524.457 213.236 524.457 213.403H524.207H521.207L520.707 213.903H518.207H517.957V214.902C517.791 214.902 517.374 214.902 516.708 214.902L516.208 215.402H508.208H507.958C507.958 215.569 507.958 215.985 507.958 216.652C508.042 216.901 507.958 216.985 507.708 216.901H476.711H476.461C476.461 216.735 476.461 216.318 476.461 215.652C476.544 215.402 476.461 215.319 476.211 215.402H467.212L466.712 214.902C466.045 214.902 465.628 214.902 465.462 214.902V213.903H465.212H462.212L461.712 213.403H457.712H457.462C457.629 212.697 457.379 212.197 456.712 211.904H450.713H450.463C450.463 211.737 450.463 211.321 450.463 210.654C450.546 210.404 450.463 210.321 450.213 210.404H445.713H445.463C445.463 210.238 445.463 209.821 445.463 209.155C445.547 208.905 445.463 208.822 445.213 208.905H440.714L440.214 208.405C439.547 208.405 439.131 208.405 438.964 208.405V206.906H438.714H434.214C433.964 206.989 433.881 206.906 433.964 206.656C433.964 205.99 433.964 205.573 433.964 205.407H433.714H429.215C428.965 205.49 428.881 205.407 428.965 205.157C428.965 204.49 428.965 204.074 428.965 203.907H428.715H424.215C423.965 203.991 423.882 203.907 423.965 203.657C423.965 202.991 423.965 202.575 423.965 202.408H423.715H421.215L420.715 201.908H417.716H417.466V200.409H417.216H412.716H412.466C412.466 200.242 412.466 199.826 412.466 199.16C412.549 198.91 412.466 198.826 412.216 198.91H407.717H407.467C407.467 198.743 407.467 198.327 407.467 197.66C407.55 197.41 407.467 197.327 407.217 197.41H402.717L402.217 196.911C401.55 196.911 401.134 196.911 400.967 196.911V195.911C400.8 195.911 400.384 195.911 399.717 195.911L399.217 195.411H396.217H395.967C395.967 195.245 395.967 194.828 395.967 194.162C396.051 193.912 395.967 193.829 395.717 193.912H388.218H387.968C387.968 193.745 387.968 193.329 387.968 192.662C388.051 192.413 387.968 192.329 387.718 192.413H383.219L382.719 191.913C382.052 191.913 381.635 191.913 381.469 191.913V190.913H381.219H378.219L377.719 190.413H371.719H371.469C371.469 190.247 371.469 189.83 371.469 189.164C371.553 188.914 371.469 188.831 371.22 188.914H350.221H349.971V190.413H349.721H345.722L345.222 190.913H342.222H341.972V192.413H341.722H337.222C336.972 192.329 336.889 192.413 336.972 192.662C336.972 193.329 336.972 193.745 336.972 193.912H336.722H334.223H333.973V195.411C333.723 195.411 333.139 195.411 332.223 195.411L331.723 195.911C331.056 195.911 330.64 195.911 330.473 195.911V197.41H328.473V198.91H328.223H325.723H325.473V200.409H323.973C323.973 200.576 323.973 200.992 323.973 201.658C323.683 202.325 323.183 202.575 322.474 202.408V203.158L321.724 203.907H320.974C320.974 204.074 320.974 204.49 320.974 205.157L320.474 205.657C320.474 206.323 320.474 206.739 320.474 206.906H318.974V207.156V210.155C319.057 210.404 318.974 210.488 318.724 210.404C318.057 210.404 317.641 210.404 317.474 210.404C317.474 210.654 317.474 211.237 317.474 212.154L316.974 212.653V213.403C316.267 213.236 315.767 213.486 315.474 214.153V218.151V218.401C315.307 218.401 314.891 218.401 314.224 218.401C313.974 218.317 313.891 218.401 313.974 218.651V225.148V225.398C313.808 225.398 313.391 225.398 312.724 225.398C312.474 225.314 312.391 225.398 312.474 225.647V308.61V308.86H313.974V307.36H315.474C315.474 307.11 315.474 306.527 315.474 305.611L315.974 305.111V304.362H316.724L317.474 303.612C317.474 302.946 317.474 302.529 317.474 302.363H318.974V300.863H320.474V299.364C320.64 299.364 321.057 299.364 321.724 299.364L322.474 298.614C322.474 297.948 322.474 297.531 322.474 297.365H322.723H325.223H325.473V295.866H326.973V294.366C327.14 294.366 327.556 294.366 328.223 294.366C328.89 294.076 329.14 293.577 328.973 292.867C329.14 292.867 329.556 292.867 330.223 292.867L330.723 292.367C331.389 292.367 331.806 292.367 331.973 292.367V290.868H332.223H334.723H334.972V289.369C335.222 289.369 335.806 289.369 336.722 289.369L337.222 288.869C337.889 288.869 338.306 288.869 338.472 288.869V287.869C338.639 287.869 339.055 287.869 339.722 287.869L340.222 287.369C341.139 287.369 341.722 287.369 341.972 287.369V285.87H342.222H344.722H344.972V284.371H345.222H348.221L348.971 283.621V282.871H349.221H353.221L353.721 282.372C354.388 282.372 354.804 282.372 354.971 282.372V281.372C355.137 281.372 355.554 281.372 356.221 281.372L356.721 280.872H361.22H361.47V279.373H361.72H367.72C367.97 279.456 368.053 279.373 367.97 279.123C367.97 278.457 367.97 278.04 367.97 277.874H368.22H372.719C372.969 277.957 373.053 277.874 372.969 277.624C372.969 276.957 372.969 276.541 372.969 276.374C373.219 276.374 373.803 276.374 374.719 276.374L375.219 275.875H377.719H377.969V274.375H378.219H380.719H380.969V272.876C381.219 272.876 381.802 272.876 382.719 272.876L383.468 272.126V271.377H383.718H385.718L386.468 270.627C386.468 269.961 386.468 269.544 386.468 269.378H386.718H389.218H389.468V267.878H391.468V266.379H392.968V264.38H394.468V262.881H395.967V261.381H397.467C397.467 261.215 397.467 260.798 397.467 260.132L397.967 259.632C397.967 258.716 397.967 258.133 397.967 257.883H399.467V256.384H400.967V256.134V253.635C401.26 252.968 401.76 252.719 402.467 252.885C402.467 252.719 402.467 252.302 402.467 251.636L402.967 251.136V248.637V248.387H404.467V248.137V243.639V243.389C404.633 243.389 405.05 243.389 405.717 243.389C405.967 243.473 406.05 243.389 405.967 243.14V238.642L406.467 238.142C406.467 237.475 406.467 237.059 406.467 236.892H406.717H477.711C477.961 236.809 478.044 236.892 477.961 237.142C477.961 237.809 477.961 238.225 477.961 238.392H476.961V238.642V241.64L476.461 242.14C476.461 242.806 476.461 243.223 476.461 243.389H474.961V243.639V246.638V246.888H473.461V247.138V251.136C473.544 251.386 473.461 251.469 473.211 251.386C472.545 251.386 472.128 251.386 471.961 251.386V251.636V254.135L471.211 254.884H470.461C470.461 255.051 470.461 255.467 470.461 256.134L469.961 256.633C469.961 257.3 469.961 257.716 469.961 257.883H468.462V259.882H466.962V260.132V262.631V262.881H465.462V264.38C465.295 264.38 464.878 264.38 464.212 264.38L463.462 265.13C463.462 265.796 463.462 266.212 463.462 266.379H461.962V267.878H460.462C460.462 268.045 460.462 268.461 460.462 269.128C460.172 269.794 459.672 270.044 458.962 269.877V271.377H456.962V272.876H455.463V274.375H453.963V275.875C453.796 275.875 453.379 275.875 452.713 275.875L451.963 276.624C451.963 277.291 451.963 277.707 451.963 277.874H451.713H449.213H448.963V279.373H446.963V280.872C446.797 280.872 446.38 280.872 445.713 280.872L445.213 281.372C444.547 281.372 444.13 281.372 443.964 281.372V282.871H443.714H441.214H440.964V284.371H440.714H437.714H437.464V285.87H437.214H434.214C433.964 285.787 433.881 285.87 433.964 286.12C433.964 286.786 433.964 287.203 433.964 287.369H433.714H431.215L430.715 287.869C429.798 287.869 429.215 287.869 428.965 287.869V288.869C428.798 288.869 428.381 288.869 427.715 288.869L427.215 289.369H424.715H424.465C424.465 289.535 424.465 289.952 424.465 290.618C424.382 290.868 424.465 290.951 424.715 290.868H435.214H435.464C435.464 291.034 435.464 291.451 435.464 292.117C435.381 292.367 435.464 292.45 435.714 292.367H445.213L445.713 292.867H448.213H448.463V293.866C448.713 293.866 449.296 293.866 450.213 293.866L450.713 294.366H463.712H463.962V295.366H464.962V294.366H465.212H483.21L483.71 293.866C484.377 293.866 484.794 293.866 484.96 293.866V292.867C485.127 292.867 485.543 292.867 486.21 292.867L486.71 292.367H491.21H491.46V290.868H491.71H496.209C496.459 290.951 496.543 290.868 496.459 290.618C496.459 289.952 496.459 289.535 496.459 289.369H496.709H499.209L499.959 288.619V287.869C500.126 287.869 500.542 287.869 501.209 287.869L501.709 287.369C502.625 287.369 503.209 287.369 503.459 287.369V285.87H503.709H506.208H506.458V284.371H506.708H509.208H509.458V282.871C509.625 282.871 510.041 282.871 510.708 282.871L511.458 282.122C511.458 281.455 511.458 281.039 511.458 280.872H512.958V279.373H514.458V277.874C514.624 277.874 515.041 277.874 515.708 277.874L516.458 277.124V276.374H517.957V274.375H519.457V272.876H520.957C520.957 272.626 520.957 272.043 520.957 271.127L521.457 270.627C521.457 269.961 521.457 269.544 521.457 269.378H522.957V269.128V266.629V266.379H524.457V266.129V263.13V262.881C524.624 262.881 525.04 262.881 525.707 262.881C525.957 262.964 526.04 262.881 525.957 262.631V258.133C525.873 257.883 525.957 257.8 526.207 257.883C526.873 257.883 527.29 257.883 527.457 257.883C527.457 257.716 527.457 257.3 527.457 256.633C527.373 256.384 527.457 256.3 527.707 256.384H578.702H578.952V257.883H579.702C580.369 258.176 580.619 258.676 580.452 259.382H578.952C578.952 259.632 578.952 260.215 578.952 261.131L578.452 261.631V264.13V264.38H576.953V264.63V269.128C577.036 269.378 576.953 269.461 576.703 269.378C576.036 269.378 575.619 269.378 575.453 269.378V269.627V272.626C575.536 272.876 575.453 272.959 575.203 272.876C574.536 272.876 574.12 272.876 573.953 272.876C573.953 273.126 573.953 273.709 573.953 274.625L573.453 275.125V275.875C572.746 275.708 572.246 275.958 571.953 276.624V279.123V279.373H570.453V281.372H568.953V281.622V284.121V284.371H566.953V285.87H565.454V287.869H563.954V289.369H562.454V290.868H560.454V292.367H558.954V294.366H557.454V295.866H555.454V297.365H555.204H552.705H552.455C552.455 297.531 552.455 297.948 552.455 298.614L551.705 299.364C551.038 299.364 550.621 299.364 550.455 299.364V300.863H550.205H547.705H547.455V302.363H547.205H544.705H544.455V303.862C544.205 303.862 543.622 303.862 542.705 303.862L542.205 304.362C541.539 304.362 541.122 304.362 540.956 304.362V305.111L540.206 305.861H537.706H537.456C537.456 306.028 537.456 306.444 537.456 307.11C537.539 307.36 537.456 307.444 537.206 307.36H533.206H532.956C532.956 307.527 532.956 307.943 532.956 308.61C533.04 308.86 532.956 308.943 532.706 308.86H529.706L529.207 309.359C528.54 309.359 528.123 309.359 527.957 309.359V309.609V311.608V311.858H528.207H530.706H530.956V310.859H531.206H552.205L552.705 310.359H562.204H562.454V309.359C562.62 309.359 563.037 309.359 563.704 309.359L564.204 308.86H571.703H571.953C571.953 308.693 571.953 308.277 571.953 307.61C571.87 307.36 571.953 307.277 572.203 307.36H578.203C578.452 307.444 578.536 307.36 578.452 307.11C578.452 306.444 578.452 306.028 578.452 305.861H578.702H581.702L582.202 305.361C583.119 305.361 583.702 305.361 583.952 305.361V304.362C584.119 304.362 584.535 304.362 585.202 304.362L585.702 303.862H588.202H588.452V302.363H588.702H593.201C593.451 302.446 593.535 302.363 593.451 302.113C593.451 301.446 593.451 301.03 593.451 300.863H593.701H596.201C596.868 300.573 597.118 300.074 596.951 299.364C597.118 299.364 597.534 299.364 598.201 299.364L598.701 298.864H601.201H601.451V297.365H601.701H604.7C604.95 297.448 605.034 297.365 604.95 297.115C604.95 296.449 604.95 296.032 604.95 295.866H606.95V296.115V343.094L606.45 343.594C606.45 344.51 606.45 345.093 606.45 345.343H604.95C604.95 345.51 604.95 345.926 604.95 346.593C605.034 346.842 604.95 346.926 604.7 346.842H600.201H599.951C599.951 347.009 599.951 347.425 599.951 348.092C600.034 348.342 599.951 348.425 599.701 348.342H593.701L593.201 348.842C592.535 348.842 592.118 348.842 591.951 348.842V349.841H591.701H585.202L584.702 350.341C584.035 350.341 583.619 350.341 583.452 350.341V351.34C583.285 351.34 582.869 351.34 582.202 351.34L581.702 351.84H539.706L539.206 351.34C538.539 351.34 538.122 351.34 537.956 351.34V350.341C537.706 350.341 537.123 350.341 536.206 350.341L535.706 349.841H528.207H527.957C528.123 349.135 527.873 348.635 527.207 348.342H519.707H519.457C519.457 348.175 519.457 347.759 519.457 347.092C519.541 346.842 519.457 346.759 519.207 346.842H514.708L514.208 346.343C513.541 346.343 513.125 346.343 512.958 346.343V345.343C512.708 345.343 512.125 345.343 511.208 345.343L510.708 344.843H508.208H507.958V343.844C507.792 343.844 507.375 343.844 506.708 343.844L506.208 343.344H503.209H502.959C502.959 343.177 502.959 342.761 502.959 342.095C503.042 341.845 502.959 341.761 502.709 341.845H498.209H497.959C497.959 341.678 497.959 341.262 497.959 340.595C498.042 340.345 497.959 340.262 497.709 340.345H493.709C493.043 340.055 492.793 339.556 492.96 338.846C492.793 338.846 492.376 338.846 491.71 338.846L491.21 338.346H488.71H488.46V336.847H488.21H485.21H484.96V335.348H484.71H480.711L479.961 334.598V333.848C479.794 333.848 479.377 333.848 478.711 333.848L478.211 333.349C477.294 333.349 476.711 333.349 476.461 333.349V331.849H476.211H472.211C471.961 331.933 471.878 331.849 471.961 331.599C471.961 330.933 471.961 330.516 471.961 330.35H471.711H468.711C468.462 330.433 468.378 330.35 468.462 330.1C468.462 329.434 468.462 329.017 468.462 328.851H468.212H465.712L464.962 328.101V327.351C464.795 327.351 464.379 327.351 463.712 327.351L463.212 326.851H460.712H460.462V325.352H460.212H457.212H456.962V323.853H456.712H452.713C452.463 323.936 452.38 323.853 452.463 323.603C452.463 322.937 452.463 322.52 452.463 322.354C452.213 322.354 451.63 322.354 450.713 322.354L450.213 321.854C449.546 321.854 449.13 321.854 448.963 321.854C449.13 321.147 448.88 320.648 448.213 320.354H444.214C443.964 320.438 443.88 320.354 443.964 320.105C443.964 319.438 443.964 319.022 443.964 318.855H443.714H440.714H440.464V317.356H440.214H436.214C435.548 317.066 435.298 316.566 435.464 315.856C435.298 315.856 434.881 315.856 434.214 315.856L433.714 315.357H431.215H430.965C431.131 314.65 430.881 314.151 430.215 313.857H426.215C425.965 313.941 425.882 313.857 425.965 313.608C425.965 312.941 425.965 312.525 425.965 312.358H425.715H421.215C420.965 312.441 420.882 312.358 420.965 312.108C420.965 311.442 420.965 311.025 420.965 310.859H420.715H418.216L417.716 310.359C416.799 310.359 416.216 310.359 415.966 310.359V309.359C415.799 309.359 415.383 309.359 414.716 309.359L414.216 308.86H409.716H409.466C409.466 308.693 409.466 308.277 409.466 307.61C409.55 307.36 409.466 307.277 409.216 307.36H401.717H401.467C401.467 307.194 401.467 306.777 401.467 306.111C401.55 305.861 401.467 305.778 401.217 305.861H394.718L394.218 305.361C393.551 305.361 393.134 305.361 392.968 305.361V304.362C392.801 304.362 392.384 304.362 391.718 304.362L391.218 303.862H368.72C368.053 304.155 367.803 304.655 367.97 305.361C367.803 305.361 367.386 305.361 366.72 305.361L366.22 305.861H358.721H358.471C358.471 306.028 358.471 306.444 358.471 307.11C358.554 307.36 358.471 307.444 358.221 307.36H353.721H353.471C353.471 307.527 353.471 307.943 353.471 308.61C353.554 308.86 353.471 308.943 353.221 308.86H349.221C348.555 309.15 348.305 309.649 348.471 310.359C348.305 310.359 347.888 310.359 347.221 310.359L346.722 310.859C345.805 310.859 345.222 310.859 344.972 310.859V312.358H344.722H342.222H341.972C341.972 312.525 341.972 312.941 341.972 313.608C342.055 313.857 341.972 313.941 341.722 313.857H339.222C338.556 314.151 338.306 314.65 338.472 315.357H336.972V316.856C336.806 316.856 336.389 316.856 335.722 316.856L335.222 317.356C334.556 317.356 334.139 317.356 333.973 317.356V318.855H331.973V320.354H330.473V321.854C330.306 321.854 329.89 321.854 329.223 321.854L328.473 322.603C328.473 323.27 328.473 323.686 328.473 323.853H326.973V325.352H325.473V326.851H323.973V328.851H322.474C322.474 329.017 322.474 329.434 322.474 330.1L321.974 330.6C321.974 331.266 321.974 331.683 321.974 331.849H320.474V332.099V335.098V335.348H318.974V335.598V338.096V338.346H317.474V338.596V341.595L316.974 342.095C316.974 342.761 316.974 343.177 316.974 343.344H315.974C315.974 343.511 315.974 343.927 315.974 344.593L315.474 345.093V351.59V351.84C315.307 351.84 314.891 351.84 314.224 351.84C313.974 351.757 313.891 351.84 313.974 352.09V441.549C314.268 442.216 314.767 442.466 315.474 442.299V442.549V453.044L315.974 453.544C315.974 454.46 315.974 455.043 315.974 455.293H316.974C316.974 455.46 316.974 455.876 316.974 456.543L317.474 457.042V461.54V461.79C317.641 461.79 318.057 461.79 318.724 461.79C318.974 461.707 319.057 461.79 318.974 462.04V468.537V468.787C319.14 468.787 319.557 468.787 320.224 468.787C320.474 468.704 320.557 468.787 320.474 469.037V473.035L320.974 473.535C320.974 474.201 320.974 474.618 320.974 474.784H321.974C321.974 475.034 321.974 475.617 321.974 476.533L322.474 477.033C322.474 477.7 322.474 478.116 322.474 478.283H323.473C323.473 478.449 323.473 478.866 323.473 479.532L323.973 480.032V483.031V483.28H325.473V483.53V486.529C325.39 486.779 325.473 486.862 325.723 486.779C326.39 486.779 326.806 486.779 326.973 486.779V487.029V489.528L327.473 490.027C327.473 490.694 327.473 491.11 327.473 491.277H328.973V491.527V494.525V494.775H330.473V496.774H331.973V497.024V499.023C332.266 499.69 332.766 499.94 333.473 499.773C333.473 499.94 333.473 500.356 333.473 501.022L333.973 501.522C333.973 502.189 333.973 502.605 333.973 502.772H335.472V504.771H336.972V505.021V507.519V507.769H338.472C338.472 507.936 338.472 508.352 338.472 509.019L339.222 509.768C339.889 509.768 340.305 509.768 340.472 509.768V510.018V512.517V512.767H341.972V514.266H343.472V515.766C343.638 515.766 344.055 515.766 344.722 515.766L345.472 516.515C345.472 517.182 345.472 517.598 345.472 517.765H346.971V519.264H348.471V520.763H349.971V522.762H351.971V524.262H353.471V525.761H354.971V527.26C355.137 527.26 355.554 527.26 356.221 527.26L356.721 527.76C357.387 527.76 357.804 527.76 357.971 527.76V528.51L358.721 529.26C359.387 529.26 359.804 529.26 359.97 529.26V530.759H361.47V532.258C361.637 532.258 362.054 532.258 362.72 532.258C363.387 532.551 363.637 533.051 363.47 533.758C363.637 533.758 364.053 533.758 364.72 533.758L365.22 534.257C365.887 534.257 366.303 534.257 366.47 534.257V535.757H368.47V537.256H368.72H371.22H371.469V539.255H371.719H374.719H374.969V540.754H375.219H377.719H377.969V542.254H379.969V543.753C380.135 543.753 380.552 543.753 381.219 543.753L381.719 544.253C382.635 544.253 383.219 544.253 383.468 544.253V545.252H384.218L384.718 545.752H387.718H387.968V547.251H388.218H391.218C391.468 547.168 391.551 547.251 391.468 547.501C391.468 548.168 391.468 548.584 391.468 548.751H391.718H394.218L394.718 549.25C395.384 549.25 395.801 549.25 395.967 549.25V550L396.717 550.75H399.217C399.551 550.623 399.634 550.873 399.467 551.499L400.217 552.249H404.217H404.467V553.748H404.717H409.216C409.466 553.665 409.55 553.748 409.466 553.998C409.466 554.665 409.466 555.081 409.466 555.248H409.716H412.716L413.216 555.748H417.216H417.466V557.247H417.716H424.215H424.465C424.465 557.413 424.465 557.83 424.465 558.496C424.382 558.746 424.465 558.829 424.715 558.746H433.714H433.964C433.964 558.913 433.964 559.329 433.964 559.996C433.881 560.245 433.964 560.329 434.214 560.245H447.213L447.713 560.745H450.213H450.463V561.745H450.713H453.713L454.213 562.245H474.711H474.961V562.494V614.471V614.721H474.711H445.713L445.213 614.221C444.547 614.221 444.13 614.221 443.964 614.221V613.221H443.714H432.714L432.214 612.722C431.298 612.722 430.715 612.722 430.465 612.722V611.722C430.298 611.722 429.881 611.722 429.215 611.722L428.715 611.222H421.215H420.965C420.965 611.056 420.965 610.639 420.965 609.973C421.049 609.723 420.965 609.64 420.715 609.723H414.716C414.466 609.806 414.383 609.723 414.466 609.473C414.466 608.807 414.466 608.39 414.466 608.224H414.216H408.216C407.966 608.307 407.883 608.224 407.966 607.974C407.966 607.307 407.966 606.891 407.966 606.724C407.8 606.724 407.383 606.724 406.717 606.724L406.217 606.225H402.717H402.467V604.725H402.217H398.217C397.967 604.809 397.884 604.725 397.967 604.475C397.967 603.809 397.967 603.393 397.967 603.226H397.717H394.718C394.468 603.309 394.384 603.226 394.468 602.976C394.468 602.31 394.468 601.893 394.468 601.727H394.218H391.718L391.218 601.227C390.551 601.227 390.135 601.227 389.968 601.227V599.728H389.718H386.718H386.468V598.228H386.218H383.219H382.969V596.729H382.719H380.219H379.969C379.969 596.562 379.969 596.146 379.969 595.479L379.219 594.73H376.719H376.469V593.23H376.219H373.719H373.469V591.731H371.469V590.232C371.303 590.232 370.886 590.232 370.22 590.232L369.72 589.732C369.053 589.732 368.636 589.732 368.47 589.732V588.233H366.47V586.733H366.22H363.72H363.47V585.234C363.303 585.234 362.887 585.234 362.22 585.234L361.47 584.484C361.47 583.818 361.47 583.402 361.47 583.235H361.22H358.721H358.471V581.736H356.971V580.236C356.804 580.236 356.387 580.236 355.721 580.236L354.971 579.487C354.971 578.82 354.971 578.404 354.971 578.237H353.471V576.738H351.971V575.239H349.971V573.739H348.471V571.74H346.971V570.241H344.972V568.742H343.472V567.242H341.972V565.243H340.472V563.744H338.472V561.745H336.972V560.245H335.472V559.996V557.497V557.247C335.306 557.247 334.889 557.247 334.223 557.247L333.473 556.497C333.473 555.831 333.473 555.414 333.473 555.248H331.973V553.748H330.473V553.499V551V550.75H328.973C328.973 550.583 328.973 550.167 328.973 549.5L328.223 548.751H327.473C327.473 548.584 327.473 548.168 327.473 547.501L326.973 547.001C326.973 546.335 326.973 545.919 326.973 545.752H325.473V545.502V543.003V542.753H323.973V540.754H322.474C322.474 540.504 322.474 539.921 322.474 539.005L321.974 538.505C321.974 537.839 321.974 537.423 321.974 537.256H320.474V537.006V534.507V534.257C320.307 534.257 319.89 534.257 319.224 534.257C318.974 534.341 318.89 534.257 318.974 534.007V531.009V530.759H317.474V530.509V528.01V527.76C317.307 527.76 316.891 527.76 316.224 527.76L315.474 527.011V524.512V524.262H313.974V524.012V519.514C314.058 519.264 313.974 519.181 313.724 519.264C313.058 519.264 312.641 519.264 312.474 519.264V519.014V516.515L311.724 515.766H310.974C310.974 515.599 310.974 515.183 310.974 514.516L310.474 514.016V511.518V511.268H308.975V511.018V506.52C309.058 506.27 308.975 506.187 308.725 506.27C308.058 506.27 307.641 506.27 307.475 506.27V506.02V501.522C307.558 501.272 307.475 501.189 307.225 501.272C306.558 501.272 306.142 501.272 305.975 501.272V501.022V498.524L305.475 498.024C305.475 497.357 305.475 496.941 305.475 496.774H304.475C304.475 496.941 304.475 497.357 304.475 498.024L303.975 498.524V509.519L304.475 510.018V514.516V514.766H305.475V515.016V521.013L305.975 521.513V532.508V532.758H306.975V533.508L307.475 534.007V542.004V542.254C307.641 542.254 308.058 542.254 308.725 542.254C308.975 542.17 309.058 542.254 308.975 542.504V549.001L309.475 549.5V550.25H310.474V550.5V553.499L310.974 553.998C310.974 554.915 310.974 555.498 310.974 555.748H311.974V556.497L312.474 556.997V561.495V561.745H313.974V561.995V564.993C314.268 565.66 314.767 565.91 315.474 565.743V565.993V568.492L315.974 568.991C315.974 569.658 315.974 570.074 315.974 570.241H317.474V570.491V573.489V573.739H318.974V573.989V576.988V577.238H320.474V577.488V579.987V580.236H321.974C321.974 580.403 321.974 580.819 321.974 581.486L322.474 581.986C322.474 582.652 322.474 583.068 322.474 583.235C323.183 583.068 323.683 583.318 323.973 583.985V586.484V586.733H325.473V588.733H326.973V588.982V591.481V591.731H328.973V591.981V594.48V594.73H330.473V596.729H331.973V598.228H333.473C333.473 598.395 333.473 598.811 333.473 599.478L333.973 599.977C333.973 600.644 333.973 601.06 333.973 601.227H335.472V603.226H336.972V604.725H338.472C338.472 604.892 338.472 605.308 338.472 605.975L339.222 606.724C339.889 606.724 340.305 606.724 340.472 606.724V608.224H341.972V608.474V610.972V611.222H343.472V612.722C343.638 612.722 344.055 612.722 344.722 612.722L345.472 613.471C345.472 614.138 345.472 614.554 345.472 614.721H346.971V616.22H348.471V617.719C348.638 617.719 349.055 617.719 349.721 617.719C350.388 618.013 350.638 618.512 350.471 619.219H351.221L351.721 619.718C352.638 619.718 353.221 619.718 353.471 619.718V621.218H354.971V622.717C355.137 622.717 355.554 622.717 356.221 622.717L356.971 623.467C356.971 624.133 356.971 624.55 356.971 624.716H358.471V626.216H360.47V627.715H360.72H363.22H363.47V629.714H364.97V631.213H365.22H367.72H367.97V632.713H369.97V634.212H370.22H372.719C373.386 634.505 373.636 635.005 373.469 635.711H374.219L374.719 636.211C375.636 636.211 376.219 636.211 376.469 636.211V637.71H376.719H379.719H379.969V639.21H380.219H382.719H382.969V640.709C383.219 640.709 383.802 640.709 384.718 640.709L385.218 641.209C385.885 641.209 386.302 641.209 386.468 641.209V642.708H386.718H389.718H389.968V644.207H390.218H394.218C394.468 644.124 394.551 644.207 394.468 644.457C394.468 645.124 394.468 645.54 394.468 645.707H394.718H397.717L398.217 646.206C398.884 646.206 399.301 646.206 399.467 646.206V647.206C399.634 647.206 400.05 647.206 400.717 647.206L401.217 647.706H404.217H404.467C404.467 647.872 404.467 648.289 404.467 648.955C404.383 649.205 404.467 649.288 404.717 649.205H410.716C410.966 649.122 411.05 649.205 410.966 649.455C410.966 650.121 410.966 650.538 410.966 650.704H411.216H413.716L414.466 651.454V702.931L413.716 703.68H411.216L410.716 703.181H407.717H407.467V702.181H406.717L406.217 701.681H402.717H402.467V700.182H402.217H398.217C397.967 700.265 397.884 700.182 397.967 699.932C397.967 699.266 397.967 698.849 397.967 698.683H397.717H395.218L394.468 697.933C394.468 697.267 394.468 696.85 394.468 696.683H394.218H391.218H390.968V695.184H390.718H386.718C386.468 695.267 386.385 695.184 386.468 694.934C386.468 694.268 386.468 693.851 386.468 693.685C386.218 693.685 385.635 693.685 384.718 693.685L384.218 693.185H383.468C383.635 692.479 383.385 691.979 382.719 691.686C382.052 691.686 381.635 691.686 381.469 691.686V690.936L380.719 690.186H378.219H377.969V688.687H377.719H375.219H374.969V687.188C374.803 687.188 374.386 687.188 373.719 687.188L373.219 686.688C372.553 686.688 372.136 686.688 371.969 686.688C372.136 685.982 371.886 685.482 371.22 685.189C370.553 685.189 370.136 685.189 369.97 685.189V683.689H369.72H367.22H366.97V682.19H364.97V680.191H363.47V678.692H361.47V677.192H361.22H358.721H358.471C358.471 677.026 358.471 676.609 358.471 675.943L357.721 675.193H356.971C357.137 674.487 356.887 673.987 356.221 673.694C355.554 673.694 355.137 673.694 354.971 673.694V672.195H353.471V670.695C353.304 670.695 352.888 670.695 352.221 670.695C351.554 670.405 351.304 669.906 351.471 669.196H350.721L349.971 668.446C350.221 667.697 349.971 667.447 349.221 667.697L348.721 667.197C347.805 667.197 347.221 667.197 346.971 667.197V665.698H345.472C345.472 665.531 345.472 665.114 345.472 664.448L344.722 663.698C344.055 663.698 343.638 663.698 343.472 663.698V662.199H341.972V660.2H340.472C340.472 660.033 340.472 659.617 340.472 658.951L339.972 658.451V657.701C339.265 657.868 338.766 657.618 338.472 656.952C338.472 656.285 338.472 655.869 338.472 655.702H336.972V654.203H335.472V652.204H333.973C333.973 652.037 333.973 651.621 333.973 650.954L333.473 650.454C333.473 649.788 333.473 649.372 333.473 649.205H331.973V647.706H330.473V645.707H328.973V645.457V642.958V642.708C328.806 642.708 328.39 642.708 327.723 642.708L326.973 641.958V639.959V639.709H326.223L325.473 638.96C325.473 638.293 325.473 637.877 325.473 637.71H323.973V637.46V634.962C323.683 634.295 323.183 634.045 322.474 634.212C322.474 634.045 322.474 633.629 322.474 632.962L321.974 632.463C321.974 631.796 321.974 631.38 321.974 631.213H320.474V629.214H318.974V628.964V626.465V626.216C318.807 626.216 318.391 626.216 317.724 626.216C317.474 626.299 317.391 626.216 317.474 625.966V623.467L316.724 622.717C316.057 622.717 315.641 622.717 315.474 622.717V622.467V619.968C315.597 619.635 315.347 619.552 314.724 619.718L313.974 618.969V614.971V614.721H312.474V614.471V611.972L311.724 611.222H310.974C310.974 611.056 310.974 610.639 310.974 609.973L310.474 609.473C310.474 608.557 310.474 607.974 310.474 607.724H309.475V606.974L308.975 606.474V603.476V603.226H307.475V602.976V598.478C307.558 598.228 307.475 598.145 307.225 598.228C306.558 598.228 306.142 598.228 305.975 598.228V597.978V594.98L305.475 594.48C305.475 593.814 305.475 593.397 305.475 593.23H304.475C304.475 593.064 304.475 592.647 304.475 591.981L303.975 591.481V588.483V588.233H302.975C302.975 588.066 302.975 587.65 302.975 586.983L302.475 586.484V581.986V581.736C302.308 581.736 301.892 581.736 301.225 581.736C300.975 581.819 300.892 581.736 300.975 581.486V575.489C301.059 575.239 300.975 575.155 300.725 575.239C300.059 575.239 299.642 575.239 299.475 575.239V574.989V571.99L298.975 571.49V567.492V567.242C298.269 567.409 297.769 567.159 297.476 566.493V560.495C297.559 560.245 297.476 560.162 297.226 560.245C296.559 560.245 296.142 560.245 295.976 560.245V560.495V563.494L295.476 563.994C295.476 564.66 295.476 565.077 295.476 565.243H294.476V565.493V571.49L293.976 571.99C293.976 572.656 293.976 573.073 293.976 573.24H292.976C292.976 573.489 292.976 574.073 292.976 574.989L292.476 575.489V579.987V580.236H290.976V580.486V586.484C291.059 586.733 290.976 586.817 290.726 586.733C290.06 586.733 289.643 586.733 289.476 586.733V586.983V591.481C289.56 591.731 289.476 591.814 289.226 591.731C288.56 591.731 288.143 591.731 287.976 591.731C287.976 591.981 287.976 592.564 287.976 593.48L287.476 593.98V596.479V596.729H285.977V596.979V600.977C286.06 601.227 285.977 601.31 285.727 601.227C285.06 601.227 284.643 601.227 284.477 601.227V601.477V605.975C284.56 606.225 284.477 606.308 284.227 606.225C283.56 606.225 283.143 606.225 282.977 606.225C282.977 606.474 282.977 607.058 282.977 607.974L282.477 608.474C282.477 609.14 282.477 609.556 282.477 609.723H281.477C281.477 609.89 281.477 610.306 281.477 610.972L280.977 611.472C280.977 612.388 280.977 612.972 280.977 613.221H279.477V613.471V617.469V617.719H277.977V617.969V620.968V621.218H276.477C276.477 621.384 276.477 621.801 276.477 622.467L275.977 622.967C275.977 623.883 275.977 624.466 275.977 624.716H274.477V624.966V627.465V627.715C274.311 627.715 273.894 627.715 273.228 627.715C272.978 627.632 272.894 627.715 272.978 627.965V630.464L272.228 631.213H271.478V632.713H269.478V632.962V635.961V636.211H267.978V636.461V638.96V639.21H266.478C266.478 639.376 266.478 639.793 266.478 640.459C266.188 641.125 265.688 641.375 264.978 641.209V641.958L264.478 642.458C264.478 643.374 264.478 643.957 264.478 644.207H262.978V645.707H261.479V647.706H259.979C259.979 647.872 259.979 648.289 259.979 648.955L259.479 649.455C259.479 650.121 259.479 650.538 259.479 650.704H257.979V652.204H256.479V654.203H254.979C254.979 654.369 254.979 654.786 254.979 655.452L254.229 656.202H253.479V656.952L252.979 657.451C252.979 658.118 252.979 658.534 252.979 658.701H251.479V660.7H249.979V662.199C249.813 662.199 249.396 662.199 248.73 662.199C248.063 662.492 247.813 662.992 247.98 663.698C247.273 663.532 246.773 663.782 246.48 664.448C246.48 665.114 246.48 665.531 246.48 665.698H244.98V667.197H243.48V668.696C243.313 668.696 242.897 668.696 242.23 668.696C241.563 668.989 241.314 669.489 241.48 670.196C240.774 670.029 240.274 670.279 239.98 670.945C239.98 671.612 239.98 672.028 239.98 672.195H239.73H237.231H236.981V673.694C236.814 673.694 236.397 673.694 235.731 673.694L234.981 674.444C234.981 675.11 234.981 675.526 234.981 675.693H233.481V677.192H231.981V678.692C231.731 678.692 231.148 678.692 230.231 678.692L229.731 679.191H228.981V680.191H226.981V682.19H224.982V683.689H224.732H222.232H221.982V685.189C221.815 685.189 221.398 685.189 220.732 685.189C220.065 685.482 219.815 685.982 219.982 686.688C219.815 686.688 219.399 686.688 218.732 686.688L218.232 687.188C217.565 687.188 217.149 687.188 216.982 687.188V688.687H216.732H214.232H213.982V690.186H211.983V691.686H211.733H209.233C208.566 691.979 208.316 692.479 208.483 693.185H207.733L207.233 693.685C206.316 693.685 205.733 693.685 205.483 693.685V695.184H205.233H201.233C200.983 695.101 200.9 695.184 200.983 695.434C200.983 696.1 200.983 696.517 200.983 696.683C200.734 696.683 200.15 696.683 199.234 696.683L198.734 697.183C198.067 697.183 197.65 697.183 197.484 697.183V697.933L196.734 698.683H194.234H193.984C193.984 698.849 193.984 699.266 193.984 699.932C194.067 700.182 193.984 700.265 193.734 700.182H189.234H188.984C188.984 700.348 188.984 700.765 188.984 701.431C189.068 701.681 188.984 701.765 188.734 701.681H184.235H183.985C183.985 701.848 183.985 702.264 183.985 702.931C184.068 703.181 183.985 703.264 183.735 703.181H177.735H177.485V702.931V650.954C177.402 650.704 177.485 650.621 177.735 650.704H182.235H182.485C182.485 650.538 182.485 650.121 182.485 649.455C182.402 649.205 182.485 649.122 182.735 649.205H188.734C188.984 649.288 189.068 649.205 188.984 648.955C188.984 648.289 188.984 647.872 188.984 647.706H189.234H192.234L192.734 647.206C193.401 647.206 193.817 647.206 193.984 647.206V646.206C194.151 646.206 194.567 646.206 195.234 646.206L195.734 645.707C196.651 645.707 197.234 645.707 197.484 645.707V644.207H197.734H201.733C201.983 644.291 202.067 644.207 201.983 643.957C201.983 643.291 201.983 642.875 201.983 642.708H202.233H205.233C205.483 642.791 205.566 642.708 205.483 642.458C205.483 641.792 205.483 641.375 205.483 641.209C205.733 641.209 206.316 641.209 207.233 641.209L207.733 640.709C208.4 640.709 208.816 640.709 208.983 640.709V639.21H209.233H211.733H211.983C211.983 639.043 211.983 638.627 211.983 637.96C211.899 637.71 211.983 637.627 212.233 637.71H215.232H215.482V636.211H215.732H218.232H218.482C218.482 636.044 218.482 635.628 218.482 634.962L219.232 634.212H221.732H221.982V632.713H223.482V631.213H223.732H226.231L226.981 630.464V629.714H228.481V627.715H228.731H231.231H231.481V626.216H233.481V624.716H234.981C234.981 624.55 234.981 624.133 234.981 623.467L235.731 622.717C236.397 622.717 236.814 622.717 236.981 622.717V621.218H237.231H239.73H239.98V619.718H241.48C241.48 619.552 241.48 619.135 241.48 618.469L242.23 617.719C242.897 617.719 243.313 617.719 243.48 617.719V616.22H244.98V614.721H246.48V613.221C246.646 613.221 247.063 613.221 247.73 613.221L248.48 612.472C248.48 611.805 248.48 611.389 248.48 611.222H249.979V609.723H251.479V608.224H252.979V606.225H254.479V605.475L255.229 604.725C255.896 604.725 256.312 604.725 256.479 604.725V604.475V601.977V601.727H257.979V599.728H259.979V598.228H261.479V597.978V595.479V595.23H262.978V593.23H264.478C264.478 592.981 264.478 592.398 264.478 591.481L264.978 590.982V590.232H265.728L266.478 589.482C266.478 588.816 266.478 588.399 266.478 588.233H267.978V587.983V585.484V585.234H269.478V584.984V581.986V581.736H270.978C270.978 581.569 270.978 581.153 270.978 580.486L271.478 579.987C271.478 579.32 271.478 578.904 271.478 578.737H272.978V578.487V575.489V575.239H274.477V574.989V571.99C274.394 571.74 274.477 571.657 274.727 571.74C275.394 571.74 275.811 571.74 275.977 571.74V571.49V568.991L276.477 568.492C276.477 567.825 276.477 567.409 276.477 567.242H277.227L277.977 566.493V563.994V563.744C278.144 563.744 278.56 563.744 279.227 563.744C279.477 563.827 279.56 563.744 279.477 563.494V558.996V558.746C279.644 558.746 280.06 558.746 280.727 558.746C280.977 558.829 281.06 558.746 280.977 558.496V553.998C280.894 553.748 280.977 553.665 281.227 553.748C281.894 553.748 282.31 553.748 282.477 553.748C282.477 553.582 282.477 553.165 282.477 552.499L282.977 551.999V546.002V545.752H284.477V545.502V539.505V539.255C284.643 539.255 285.06 539.255 285.727 539.255C285.977 539.338 286.06 539.255 285.977 539.005V529.509V529.26C286.143 529.26 286.56 529.26 287.226 529.26C287.476 529.343 287.56 529.26 287.476 529.01V516.515L287.976 516.016V501.522V501.272H288.976V501.022V498.524V498.274H288.226L287.726 497.774C286.81 497.774 286.226 497.774 285.977 497.774V498.024V504.021V504.271C285.81 504.271 285.393 504.271 284.727 504.271C284.477 504.188 284.393 504.271 284.477 504.521V510.518L283.727 511.268H282.977V511.518V514.016L282.477 514.516C282.477 515.183 282.477 515.599 282.477 515.766C281.767 515.599 281.267 515.849 280.977 516.515V519.014C281.06 519.264 280.977 519.347 280.727 519.264C280.06 519.264 279.644 519.264 279.477 519.264V519.514V524.012C279.56 524.262 279.477 524.345 279.227 524.262C278.56 524.262 278.144 524.262 277.977 524.262V524.512V527.011L277.227 527.76H276.477C276.477 527.927 276.477 528.343 276.477 529.01L275.977 529.509C275.977 530.176 275.977 530.592 275.977 530.759H274.477V531.009V534.007V534.257H272.978V534.507V537.006V537.256C272.811 537.256 272.394 537.256 271.728 537.256C271.478 537.173 271.394 537.256 271.478 537.506V540.005L270.728 540.754C270.061 540.754 269.645 540.754 269.478 540.754V541.004V543.503V543.753H267.978V545.752H266.478V546.002V548.501V548.751C266.311 548.751 265.895 548.751 265.228 548.751L264.478 549.5C264.478 550.167 264.478 550.583 264.478 550.75H262.978V551V553.499V553.748H261.479V555.248H259.979C259.979 555.414 259.979 555.831 259.979 556.497L259.229 557.247C258.562 557.247 258.145 557.247 257.979 557.247V558.746H256.479V558.996V561.495V561.745H254.979V563.744H252.979V565.243H251.479V567.242H249.979V568.742H248.48V570.241H246.48V571.74H244.98V573.739H243.48V575.239H241.48V576.738H239.98V578.237C239.814 578.237 239.397 578.237 238.73 578.237L238.23 578.737C237.564 578.737 237.147 578.737 236.981 578.737V580.236H234.981V581.736H233.481V583.235C233.231 583.235 232.648 583.235 231.731 583.235L231.231 583.735H230.481C230.648 584.444 230.398 584.944 229.731 585.234C229.065 585.234 228.648 585.234 228.481 585.234V586.733H226.481V588.233H226.231H223.732H223.482V589.732C223.315 589.732 222.898 589.732 222.232 589.732L221.732 590.232C221.065 590.232 220.649 590.232 220.482 590.232V591.731H218.482V593.23H218.232H215.732H215.482C215.482 593.397 215.482 593.814 215.482 594.48C215.566 594.73 215.482 594.813 215.232 594.73H212.733L211.983 595.479C211.983 596.146 211.983 596.562 211.983 596.729H211.733H209.233H208.983V598.228H208.733H205.733H205.483V599.728H205.233H202.233H201.983V601.227C201.817 601.227 201.4 601.227 200.734 601.227L200.234 601.727H197.734H197.484V603.226H197.234H194.234H193.984V604.725H193.734H189.234H188.984C188.984 604.892 188.984 605.308 188.984 605.975C189.068 606.225 188.984 606.308 188.734 606.225H184.235L183.735 606.724C183.068 606.724 182.652 606.724 182.485 606.724V608.224H182.235H176.236H175.986C175.986 608.39 175.986 608.807 175.986 609.473C176.069 609.723 175.986 609.806 175.736 609.723H169.736H169.486C169.486 609.89 169.486 610.306 169.486 610.972C169.569 611.222 169.486 611.306 169.236 611.222H161.737C161.07 611.516 160.82 612.015 160.987 612.722C160.82 612.722 160.403 612.722 159.737 612.722L159.237 613.221H146.738H146.488C146.488 613.388 146.488 613.804 146.488 614.471C146.571 614.721 146.488 614.804 146.238 614.721H116.74H116.49V614.471V562.494V562.245H116.74H134.739L135.239 561.745H139.739H139.988V560.745H140.238H142.738L143.238 560.245H154.237H154.487C154.487 560.079 154.487 559.662 154.487 558.996C154.404 558.746 154.487 558.663 154.737 558.746H164.237H164.486C164.486 558.58 164.486 558.163 164.486 557.497C164.403 557.247 164.486 557.164 164.736 557.247H172.236C172.486 557.33 172.569 557.247 172.486 556.997C172.486 556.331 172.486 555.914 172.486 555.748H172.736H175.736L176.236 555.248H178.735H178.985V553.748H179.235H184.235C184.485 553.832 184.568 553.748 184.485 553.499C184.485 552.832 184.485 552.416 184.485 552.249H184.735H188.734H188.984C188.984 552.083 188.984 551.666 188.984 551C188.901 550.75 188.984 550.666 189.234 550.75H193.734H193.984V548.751H194.234H198.734H198.984V547.251H199.234H202.233H202.483V545.752H202.733H205.233H205.483V544.253C205.733 544.253 206.316 544.253 207.233 544.253L207.733 543.753C208.4 543.753 208.816 543.753 208.983 543.753V542.254H209.233H211.733H211.983V540.754H212.233H215.232C215.482 540.838 215.566 540.754 215.482 540.504C215.482 539.838 215.482 539.422 215.482 539.255C215.732 539.255 216.316 539.255 217.232 539.255L217.732 538.755H218.482C218.315 538.049 218.565 537.549 219.232 537.256H221.232H221.482V535.757H223.482V534.257H223.732H226.231L226.981 533.508C226.981 532.841 226.981 532.425 226.981 532.258H228.481V530.759H230.481V529.26H230.731H233.231H233.481V527.76H234.981V525.761H236.981V524.262H238.48V522.762H239.98V521.263C240.147 521.263 240.564 521.263 241.23 521.263L241.73 520.763C242.397 520.763 242.813 520.763 242.98 520.763V519.264H244.98V519.014V516.515V516.265H246.48C246.48 516.099 246.48 515.682 246.48 515.016L247.23 514.266C247.896 514.266 248.313 514.266 248.48 514.266V512.767H249.979V511.268H251.479V509.269H252.979C252.979 509.102 252.979 508.686 252.979 508.019L253.479 507.519C253.479 506.853 253.479 506.437 253.479 506.27H254.979V504.771H256.479V502.772H257.979C257.979 502.605 257.979 502.189 257.979 501.522L258.479 501.022C258.479 500.356 258.479 499.94 258.479 499.773H259.229L259.979 499.023C259.979 498.357 259.979 497.94 259.979 497.774H261.479V497.524V495.025V494.775H262.978V494.525V491.527V491.277H264.478C264.478 491.11 264.478 490.694 264.478 490.027L264.978 489.528C264.978 488.861 264.978 488.445 264.978 488.278H266.478V488.028V485.03V484.78H267.978V484.53V482.031V481.781H269.478V481.531V478.533V478.283H270.978C270.978 478.116 270.978 477.7 270.978 477.033L271.478 476.533V473.535V473.285H272.978V473.035V468.537V468.287C273.144 468.287 273.561 468.287 274.227 468.287C274.477 468.371 274.561 468.287 274.477 468.037V462.04C274.394 461.79 274.477 461.707 274.727 461.79C275.394 461.79 275.811 461.79 275.977 461.79V461.54V458.542L276.477 458.042V455.543V455.293H277.477C277.477 455.127 277.477 454.71 277.477 454.044L277.977 453.544V443.548V443.299C278.144 443.299 278.56 443.299 279.227 443.299C279.477 443.382 279.56 443.299 279.477 443.049V353.589V353.339C279.31 353.339 278.894 353.339 278.227 353.339C277.977 353.423 277.894 353.339 277.977 353.09V345.593C278.06 345.343 277.977 345.26 277.727 345.343C277.061 345.343 276.644 345.343 276.477 345.343V345.093V342.095L275.977 341.595C275.977 340.928 275.977 340.512 275.977 340.345H274.477V340.095V337.097V336.847H272.978V336.597V334.098V333.848H271.478C271.478 333.598 271.478 333.015 271.478 332.099L270.978 331.599C270.978 330.933 270.978 330.516 270.978 330.35H269.478V328.851H267.978V326.851H266.478V325.352H264.478V323.853H262.978V321.854H261.479V320.354H259.979V318.855H259.729H256.729H256.479V317.356H254.979C254.979 317.189 254.979 316.773 254.979 316.106L254.229 315.357H251.729H251.479V313.857H251.229H248.73H248.48V312.358C248.23 312.358 247.646 312.358 246.73 312.358L246.23 311.858C245.563 311.858 245.147 311.858 244.98 311.858V310.859C244.813 310.859 244.397 310.859 243.73 310.859L243.23 310.359C242.313 310.359 241.73 310.359 241.48 310.359V308.86H241.23H237.231H236.981C236.981 308.693 236.981 308.277 236.981 307.61C237.064 307.36 236.981 307.277 236.731 307.36H231.731L231.231 306.861H230.481V305.861H230.231H224.232L223.732 305.361C222.815 305.361 222.232 305.361 221.982 305.361V304.362C221.815 304.362 221.398 304.362 220.732 304.362L220.232 303.862H199.234L198.734 304.362C198.067 304.362 197.65 304.362 197.484 304.362V305.361C197.234 305.361 196.651 305.361 195.734 305.361L195.234 305.861H186.235H185.985C185.985 306.028 185.985 306.444 185.985 307.11C186.068 307.36 185.985 307.444 185.735 307.36H179.235H178.985C178.985 307.527 178.985 307.943 178.985 308.61C179.069 308.86 178.985 308.943 178.735 308.86H174.236L173.736 309.359C173.069 309.359 172.652 309.359 172.486 309.359V310.359C172.319 310.359 171.903 310.359 171.236 310.359L170.736 310.859H168.236H167.986V311.608L167.236 312.358H164.237H163.987C163.987 312.525 163.987 312.941 163.987 313.608C164.07 313.857 163.987 313.941 163.737 313.857H159.737H159.487C159.487 314.024 159.487 314.44 159.487 315.107C159.57 315.357 159.487 315.44 159.237 315.357H155.237C154.571 315.65 154.321 316.15 154.487 316.856C154.321 316.856 153.904 316.856 153.237 316.856L152.737 317.356H149.738H149.488V318.855H149.238H145.238C144.988 318.772 144.905 318.855 144.988 319.105C144.988 319.771 144.988 320.188 144.988 320.354H144.738H141.738C141.488 320.271 141.405 320.354 141.488 320.604C141.488 321.271 141.488 321.687 141.488 321.854C141.238 321.854 140.655 321.854 139.739 321.854L139.239 322.354C138.572 322.354 138.155 322.354 137.989 322.354V323.353C137.822 323.353 137.405 323.353 136.739 323.353L136.239 323.853H133.239H132.989V325.352H132.739H130.239C129.573 325.645 129.323 326.145 129.489 326.851H129.239H126.74L126.24 327.351C125.573 327.351 125.156 327.351 124.99 327.351V328.851H124.74H121.74H121.49V330.35H121.24H118.74H118.49V331.849H118.24H115.241C114.991 331.766 114.907 331.849 114.991 332.099C114.991 332.765 114.991 333.182 114.991 333.349H114.741H112.241L111.741 333.848C111.074 333.848 110.658 333.848 110.491 333.848V334.598L109.741 335.348H107.241C106.991 335.264 106.908 335.348 106.991 335.598C106.991 336.264 106.991 336.68 106.991 336.847H106.741H102.242C101.992 336.764 101.908 336.847 101.992 337.097C101.992 337.763 101.992 338.18 101.992 338.346H101.742H99.2418L98.4919 339.096C98.4919 339.762 98.4919 340.179 98.4919 340.345H98.2419H94.2423C93.9923 340.262 93.909 340.345 93.9923 340.595C93.9923 341.262 93.9923 341.678 93.9923 341.845H93.7423H90.7425H90.4926V343.344H90.2426H85.743C85.493 343.261 85.4096 343.344 85.493 343.594C85.493 344.26 85.493 344.677 85.493 344.843H85.243H82.2432L81.7433 345.343H79.2435H78.9935V346.842H78.7435H72.744H72.494C72.494 347.009 72.494 347.425 72.494 348.092C72.5774 348.342 72.494 348.425 72.2441 348.342H65.7446L65.2446 348.842H64.4947V349.841H64.2447H57.7453L57.2453 350.341H54.7455H54.4955V351.09L53.7456 351.84H10.2492C9.99918 351.923 9.91585 351.84 9.99918 351.59C9.99918 350.924 9.99918 350.507 9.99918 350.341C9.7492 350.341 9.16591 350.341 8.24932 350.341L7.74936 349.841H0.249977H-2.56673e-06V349.591V302.613C-0.0833291 302.363 -2.56673e-06 302.279 0.249977 302.363C0.916589 302.363 1.33322 302.363 1.49987 302.363V303.862H1.74985H4.74961L5.24957 304.362C5.91618 304.362 6.33281 304.362 6.49946 304.362V305.111L7.2494 305.861H11.2491H11.4991C11.4991 306.028 11.4991 306.444 11.4991 307.11C11.4157 307.36 11.4991 307.444 11.749 307.36H17.7485H17.9985C17.9985 307.527 17.9985 307.943 17.9985 308.61C17.9152 308.86 17.9985 308.943 18.2485 308.86H25.7479C26.4145 309.15 26.6645 309.649 26.4978 310.359H26.7478H35.7471L36.247 310.859H62.2449L62.7448 310.359C63.4115 310.359 63.8281 310.359 63.9947 310.359V309.359C63.8281 309.359 63.4115 309.359 62.7448 309.359L62.2449 308.86H57.7453H57.4953V307.36H57.2453H54.7455L53.9956 306.611V305.861H53.7456H51.2458L50.7458 305.361C50.0792 305.361 49.6626 305.361 49.4959 305.361C49.6626 304.655 49.4126 304.155 48.746 303.862H46.7462H46.4962V303.112L45.7462 302.363C45.0796 302.363 44.663 302.363 44.4963 302.363V300.863H44.2464H41.7466C41.08 300.573 40.83 300.074 40.9966 299.364H39.4968C39.4968 299.197 39.4968 298.781 39.4968 298.115L38.7468 297.365H36.747H36.497V295.866H34.4972V294.366H32.9973C32.9973 294.2 32.9973 293.783 32.9973 293.117C32.7073 292.45 32.2074 292.201 31.4974 292.367V290.868H29.4976V289.369H27.9977C27.9977 289.202 27.9977 288.785 27.9977 288.119C27.7077 287.453 27.2078 287.203 26.4978 287.369V285.87H24.9979C24.9979 285.704 24.9979 285.287 24.9979 284.621L24.498 284.121C24.498 283.455 24.498 283.038 24.498 282.871H22.9981V280.872H21.4982V280.622V278.124V277.874H19.9984C19.9984 277.624 19.9984 277.041 19.9984 276.125L19.4984 275.625C19.4984 274.958 19.4984 274.542 19.4984 274.375H17.9985V274.125V271.127V270.877H16.4986V270.627V266.629V266.379C16.332 266.379 15.9154 266.379 15.2487 266.379C14.9988 266.462 14.9154 266.379 14.9988 266.129V261.631L14.4988 261.131C14.4988 260.465 14.4988 260.049 14.4988 259.882H13.7489L12.9989 259.132C12.9989 258.466 12.9989 258.049 12.9989 257.883H14.4988C14.4988 257.716 14.4988 257.3 14.4988 256.633C14.4155 256.384 14.4988 256.3 14.7488 256.384H65.2446H65.4946V257.883H67.4945V258.133V262.631V262.881H68.9943V263.13V266.129V266.379H70.4942V266.629V269.128V269.378C70.6609 269.378 71.0775 269.378 71.7441 269.378L72.494 270.127V272.626V272.876H73.9939V274.375H75.4938C75.4938 274.542 75.4938 274.958 75.4938 275.625C75.7871 276.291 76.2871 276.541 76.9937 276.374V277.124L77.7436 277.874C78.4102 277.874 78.8269 277.874 78.9935 277.874V279.373H80.4934V280.872C80.66 280.872 81.0767 280.872 81.7433 280.872C82.4099 281.162 82.6599 281.662 82.4932 282.372H83.2432L83.7431 282.871C84.6597 282.871 85.243 282.871 85.493 282.871V284.371H86.9929V285.87H87.2428H90.2426H90.4926V287.369C90.6592 287.369 91.0758 287.369 91.7425 287.369L92.2424 287.869C92.909 287.869 93.3257 287.869 93.4923 287.869V288.619L94.2423 289.369H98.2419C98.4919 289.285 98.5752 289.369 98.4919 289.618C98.4919 290.285 98.4919 290.701 98.4919 290.868H98.7419H101.742H101.992V292.367H102.242H108.241C108.491 292.284 108.574 292.367 108.491 292.617C108.491 293.283 108.491 293.7 108.491 293.866H108.741H111.241L111.741 294.366H121.74H121.99V295.366H123.49V294.366H124.99V295.366H125.24H128.239H128.489V294.366H128.739H142.738L143.238 293.866H145.738H145.988V292.867C146.238 292.867 146.821 292.867 147.738 292.867L148.238 292.367H155.737H155.987C155.987 292.201 155.987 291.784 155.987 291.118C155.904 290.868 155.987 290.785 156.237 290.868H167.236C167.486 290.951 167.57 290.868 167.486 290.618C167.486 289.952 167.486 289.535 167.486 289.369C167.32 289.369 166.903 289.369 166.236 289.369L165.736 288.869C165.07 288.869 164.653 288.869 164.486 288.869V287.869C164.237 287.869 163.653 287.869 162.737 287.869L162.237 287.369C161.57 287.369 161.153 287.369 160.987 287.369V286.37C160.82 286.37 160.403 286.37 159.737 286.37L159.237 285.87H156.237H155.987V284.371H155.737H153.237H152.987C152.987 284.204 152.987 283.788 152.987 283.121C153.071 282.871 152.987 282.788 152.737 282.871H150.238L149.488 282.122C149.488 281.455 149.488 281.039 149.488 280.872H149.238H146.738H146.488V279.373H144.488V277.874H144.238H141.738H141.488C141.488 277.707 141.488 277.291 141.488 276.624L140.738 275.875C140.072 275.875 139.655 275.875 139.489 275.875V274.375H137.989V272.876H136.489V271.377C136.322 271.377 135.906 271.377 135.239 271.377L134.489 270.627V269.877C133.782 270.044 133.282 269.794 132.989 269.128C132.989 268.461 132.989 268.045 132.989 267.878H131.489V266.379H129.989C129.989 266.212 129.989 265.796 129.989 265.13C129.699 264.463 129.199 264.213 128.489 264.38C128.656 263.674 128.406 263.174 127.74 262.881C127.073 262.881 126.656 262.881 126.49 262.881V262.631V260.132V259.882H124.99V257.883H123.49V257.633V255.134V254.884C123.323 254.884 122.907 254.884 122.24 254.884L121.49 254.135V251.636V251.386H119.99V251.136V248.637V248.387H118.49V248.137V245.139V244.889C118.324 244.889 117.907 244.889 117.24 244.889C116.99 244.972 116.907 244.889 116.99 244.639V241.64L116.49 241.14V238.642V238.392H115.491V236.892H115.74H185.735C185.985 236.809 186.068 236.892 185.985 237.142V241.14V241.39C186.151 241.39 186.568 241.39 187.235 241.39C187.485 241.307 187.568 241.39 187.485 241.64V246.138V246.388H188.984V246.638V249.637V249.886H190.484C190.484 250.053 190.484 250.47 190.484 251.136L190.984 251.636C190.984 252.302 190.984 252.719 190.984 252.885H191.734L192.484 253.635V256.134V256.384H193.984V258.383H195.484C195.484 258.549 195.484 258.966 195.484 259.632L195.984 260.132C195.984 260.798 195.984 261.215 195.984 261.381H197.484V262.881H198.984V264.38H200.484V266.379H202.483V267.878H203.983V269.378H204.233H206.733H206.983C206.983 269.544 206.983 269.961 206.983 270.627L207.733 271.377C208.4 271.377 208.816 271.377 208.983 271.377V272.876H209.233H211.733H211.983V274.375H212.233H215.232C215.482 274.292 215.566 274.375 215.482 274.625C215.482 275.292 215.482 275.708 215.482 275.875C215.732 275.875 216.316 275.875 217.232 275.875L217.732 276.374H220.232H220.482V277.874H220.732H224.732H224.982C224.982 278.04 224.982 278.457 224.982 279.123C224.898 279.373 224.982 279.456 225.231 279.373H231.231C231.481 279.29 231.564 279.373 231.481 279.623C231.481 280.289 231.481 280.706 231.481 280.872H231.731H235.231L235.731 281.372C236.397 281.372 236.814 281.372 236.981 281.372V282.372C237.147 282.372 237.564 282.372 238.23 282.372L238.73 282.871H242.73H242.98V284.371H243.23H247.73C247.98 284.287 248.063 284.371 247.98 284.621C247.98 285.287 247.98 285.704 247.98 285.87H248.23H251.229C251.479 285.787 251.563 285.87 251.479 286.12C251.479 286.786 251.479 287.203 251.479 287.369C251.729 287.369 252.313 287.369 253.229 287.369L253.729 287.869C254.396 287.869 254.812 287.869 254.979 287.869V289.369H255.229H257.729H257.979C257.979 289.535 257.979 289.952 257.979 290.618C257.895 290.868 257.979 290.951 258.229 290.868H261.229H261.479V292.367H262.978V293.866C263.145 293.866 263.562 293.866 264.228 293.866L264.728 294.366C265.645 294.366 266.228 294.366 266.478 294.366V295.866H267.978V297.365C268.145 297.365 268.561 297.365 269.228 297.365C269.894 297.658 270.144 298.158 269.978 298.864C270.144 298.864 270.561 298.864 271.228 298.864L271.728 299.364C272.394 299.364 272.811 299.364 272.978 299.364V300.863H274.477V302.363H275.977C275.977 302.529 275.977 302.946 275.977 303.612L276.727 304.362C277.394 304.362 277.811 304.362 277.977 304.362V304.612V306.611V306.861C278.144 306.861 278.56 306.861 279.227 306.861L279.727 307.36C280.394 307.36 280.81 307.36 280.977 307.36V307.11V238.642V238.392C280.81 238.392 280.394 238.392 279.727 238.392C279.477 238.475 279.394 238.392 279.477 238.142V222.149C279.56 221.899 279.477 221.816 279.227 221.899C278.56 221.899 278.144 221.899 277.977 221.899V221.649V217.151C278.06 216.901 277.977 216.818 277.727 216.901C277.061 216.901 276.644 216.901 276.477 216.901V216.652V214.153L275.977 213.653C275.977 212.737 275.977 212.154 275.977 211.904H274.477V211.654V209.155V208.905H272.978V206.906H271.478C271.478 206.739 271.478 206.323 271.478 205.657L270.978 205.157C270.978 204.49 270.978 204.074 270.978 203.907H269.478V202.408H267.978V200.409H265.978V198.91H265.728H263.228H262.978V197.41H261.479V195.911C261.312 195.911 260.895 195.911 260.229 195.911L259.729 195.411C258.812 195.411 258.229 195.411 257.979 195.411V193.912H257.729H254.729H254.479V192.413H254.229H250.229C249.979 192.496 249.896 192.413 249.979 192.163C249.979 191.496 249.979 191.08 249.979 190.913H249.729H246.73L246.23 190.413H243.23H242.98V189.414H242.23L241.73 188.914H222.232C221.565 189.207 221.315 189.707 221.482 190.413H221.232H215.732L215.232 190.913H212.233H211.983C211.983 191.08 211.983 191.496 211.983 192.163C212.066 192.413 211.983 192.496 211.733 192.413H205.733H205.483C205.483 192.579 205.483 192.996 205.483 193.662C205.566 193.912 205.483 193.995 205.233 193.912H199.234H198.984C198.984 194.078 198.984 194.495 198.984 195.161C199.067 195.411 198.984 195.494 198.734 195.411H194.234L193.734 195.911C193.067 195.911 192.651 195.911 192.484 195.911V197.41H192.234H187.735C187.485 197.327 187.401 197.41 187.485 197.66C187.485 198.327 187.485 198.743 187.485 198.91H187.235H182.735C182.485 198.826 182.402 198.91 182.485 199.16C182.485 199.826 182.485 200.242 182.485 200.409H182.235H177.735C177.485 200.326 177.402 200.409 177.485 200.659C177.485 201.325 177.485 201.742 177.485 201.908H177.235H174.736L174.236 202.408H171.236H170.986C170.986 202.575 170.986 202.991 170.986 203.657C171.069 203.907 170.986 203.991 170.736 203.907H166.236H165.986C165.986 204.074 165.986 204.49 165.986 205.157C166.07 205.407 165.986 205.49 165.736 205.407H161.237H160.987C160.987 205.573 160.987 205.99 160.987 206.656C161.07 206.906 160.987 206.989 160.737 206.906H156.737C156.071 207.199 155.821 207.699 155.987 208.405C155.821 208.405 155.404 208.405 154.737 208.405L154.237 208.905H151.238H150.988V209.905H150.238L149.738 210.404H145.238H144.988C144.988 210.571 144.988 210.987 144.988 211.654C145.071 211.904 144.988 211.987 144.738 211.904H139.739L139.239 212.403H138.489V213.403H138.239H135.239L134.739 213.903H130.239H129.989V215.402H129.739H121.74H121.49C121.49 215.569 121.49 215.985 121.49 216.652C121.573 216.901 121.49 216.985 121.24 216.901H87.2428H86.9929C86.9929 216.735 86.9929 216.318 86.9929 215.652C87.0762 215.402 86.9929 215.319 86.7429 215.402H77.7436L76.9937 214.652V213.903H76.7437H74.2439L73.7439 213.403H70.7442H70.4942V211.904H70.2442H66.2446C65.9946 211.987 65.9113 211.904 65.9946 211.654C65.9946 210.987 65.9946 210.571 65.9946 210.404H65.7446H62.7448H62.4949V208.905H62.2449H59.2451L58.7452 208.405H57.9952C58.1619 207.699 57.9119 207.199 57.2453 206.906C56.5787 206.906 56.1621 206.906 55.9954 206.906V205.407H55.7454H52.7457H52.4957V203.907C52.329 203.907 51.9124 203.907 51.2458 203.907L50.7458 203.408C50.0792 203.408 49.6626 203.408 49.4959 203.408C49.6626 202.701 49.4126 202.201 48.746 201.908C48.0794 201.908 47.6627 201.908 47.4961 201.908V200.409H47.2461H44.7463H44.4963V198.91H42.9965V197.41C42.8298 197.41 42.4132 197.41 41.7466 197.41L40.9966 196.661C40.9966 195.994 40.9966 195.578 40.9966 195.411H39.4968V193.912H37.9969V192.413H35.997V190.913H34.4972V188.914H32.9973V187.415H31.4974C31.4974 187.248 31.4974 186.832 31.4974 186.165L30.9975 185.666C30.9975 184.999 30.9975 184.583 30.9975 184.416H30.2475L29.4976 183.667C29.4976 183 29.4976 182.584 29.4976 182.417H27.9977V180.418H26.4978V180.168V177.669V177.419H24.9979C24.9979 177.253 24.9979 176.836 24.9979 176.17L24.498 175.67C24.498 175.004 24.498 174.587 24.498 174.421H22.9981V174.171V171.172V170.922C22.8315 170.922 22.4148 170.922 21.7482 170.922C21.4982 171.006 21.4149 170.922 21.4982 170.672V166.174C21.5816 165.925 21.4982 165.841 21.2483 165.925C20.5816 165.925 20.165 165.925 19.9984 165.925C19.9984 165.675 19.9984 165.092 19.9984 164.175L19.4984 163.676C19.4984 163.009 19.4984 162.593 19.4984 162.426H17.9985V162.176V159.677V159.428H18.2485H73.7439C73.9939 159.344 74.0772 159.428 73.9939 159.677C73.9939 160.594 73.9939 161.177 73.9939 161.427H75.4938V161.677V164.175V164.425H76.9937C76.9937 164.592 76.9937 165.008 76.9937 165.675L77.4936 166.174C77.4936 166.841 77.4936 167.257 77.4936 167.424H78.9935V169.423H80.4934V170.922H81.9933C81.9933 171.089 81.9933 171.505 81.9933 172.172C82.2866 172.838 82.7865 173.088 83.4931 172.921V173.671L84.2431 174.421C84.9097 174.421 85.3263 174.421 85.493 174.421V175.92H86.9929V177.419H88.9927V178.919H89.2427H91.7425H91.9924V180.918H92.2424H95.2422H95.4922V182.417H95.7421H98.2419H98.4919C98.4919 182.584 98.4919 183 98.4919 183.667C98.4086 183.916 98.4919 184 98.7419 183.916H103.242L103.741 184.416C104.408 184.416 104.825 184.416 104.991 184.416V185.166L105.741 185.916H111.741H111.991V186.915C112.157 186.915 112.574 186.915 113.241 186.915L113.741 187.415H124.74L125.24 186.915C125.906 186.915 126.323 186.915 126.49 186.915V185.916H126.74H132.739L133.239 185.416C134.156 185.416 134.739 185.416 134.989 185.416V184.416H135.239H137.739L138.239 183.916H142.738H142.988V182.417H142.738H138.239C137.989 182.5 137.905 182.417 137.989 182.167C137.989 181.501 137.989 181.084 137.989 180.918H137.739H133.739C133.489 181.001 133.406 180.585 133.489 179.668L132.739 178.919H130.239H129.989C130.156 178.212 129.906 177.713 129.239 177.419H126.74H126.49V175.92H126.24H122.24C121.99 176.003 121.907 175.92 121.99 175.67C121.99 175.004 121.99 174.587 121.99 174.421C121.74 174.421 121.157 174.421 120.24 174.421L119.74 173.921C119.074 173.921 118.657 173.921 118.49 173.921V172.422H116.49V170.922H116.24H113.741H113.491V169.423C113.324 169.423 112.907 169.423 112.241 169.423L111.491 168.673V167.924C110.781 168.09 110.281 167.84 109.991 167.174C109.991 166.508 109.991 166.091 109.991 165.925H109.741H107.241H106.991V164.425H105.491C105.491 164.259 105.491 163.842 105.491 163.176L104.741 162.426C104.075 162.426 103.658 162.426 103.491 162.426V160.927H101.992V159.428H100.492C100.492 159.178 100.492 158.595 100.492 157.678L99.9918 157.179V156.429C99.2852 156.596 98.7852 156.346 98.4919 155.679C98.4919 155.013 98.4919 154.596 98.4919 154.43H96.992V152.931H95.4922V152.681V150.182L94.7422 149.432H93.9923V147.933H91.9924V147.683V144.684C92.0758 144.434 91.9924 144.351 91.7425 144.434C91.0758 144.434 90.6592 144.434 90.4926 144.434V144.184V141.686V141.436H88.9927V141.186V138.187L88.4927 137.687C88.4927 137.021 88.4927 136.605 88.4927 136.438H86.9929V136.188V132.19V131.94C86.8262 131.94 86.4096 131.94 85.743 131.94C85.493 132.023 85.4096 131.94 85.493 131.69V127.192V126.942C85.3263 126.942 84.9097 126.942 84.2431 126.942C83.9931 127.026 83.9098 126.942 83.9931 126.692V121.695V121.445H84.2431H142.738C142.988 121.528 143.072 121.445 142.988 121.195C142.988 120.529 142.988 120.112 142.988 119.945H144.488V121.445C144.655 121.445 145.071 121.445 145.738 121.445L146.488 122.194V126.193V126.443H147.988V126.692V131.19C147.905 131.44 147.988 131.524 148.238 131.44C148.904 131.44 149.321 131.44 149.488 131.44V131.69V134.189L150.238 134.939H150.988C150.988 135.105 150.988 135.522 150.988 136.188L151.488 136.688C151.488 137.354 151.488 137.771 151.488 137.937H152.987V138.187V140.686V140.936H154.487V142.935H155.987C155.987 143.102 155.987 143.518 155.987 144.184C156.28 144.851 156.78 145.101 157.487 144.934V145.684L158.237 146.433C158.904 146.433 159.32 146.433 159.487 146.433V146.683V149.182V149.432C159.737 149.432 160.32 149.432 161.237 149.432L161.737 149.932H162.487V150.682L163.237 151.431C163.903 151.431 164.32 151.431 164.486 151.431V152.931H165.986V154.43H167.986V155.929H168.236H170.736H170.986V157.928H171.236H174.236H174.486V159.428H174.736H177.235H177.485V160.927H177.735H180.735C180.985 160.844 181.068 160.927 180.985 161.177C180.985 161.843 180.985 162.26 180.985 162.426H181.235H183.735L184.235 162.926H187.235H187.485V164.425H187.735H193.734H193.984C193.984 164.592 193.984 165.008 193.984 165.675C193.901 165.925 193.984 166.008 194.234 165.925H203.733L204.233 166.424C204.9 166.424 205.316 166.424 205.483 166.424V167.424H205.733H234.731L235.231 167.924C236.147 167.924 236.731 167.924 236.981 167.924V168.923C237.147 168.923 237.564 168.923 238.23 168.923L238.73 169.423H246.23H246.48C246.48 169.59 246.48 170.006 246.48 170.672C246.396 170.922 246.48 171.006 246.73 170.922H254.729H254.979V169.423H252.979V167.424H251.479V165.925H249.979V165.675V163.176V162.926H248.48C248.48 162.759 248.48 162.343 248.48 161.677L247.73 160.927H246.98C246.98 160.76 246.98 160.344 246.98 159.677L246.48 159.178C246.48 158.511 246.48 158.095 246.48 157.928H244.98V157.678V154.68V154.43H243.48C243.48 154.263 243.48 153.847 243.48 153.18L242.98 152.681C242.98 152.014 242.98 151.598 242.98 151.431C242.273 151.598 241.773 151.348 241.48 150.682V148.183V147.933H239.98V147.683V144.684V144.434H238.48V144.184V141.686V141.436C238.314 141.436 237.897 141.436 237.231 141.436C236.981 141.519 236.897 141.436 236.981 141.186V138.687L236.481 138.187C236.481 137.271 236.481 136.688 236.481 136.438H234.981V136.188V130.191C235.064 129.941 234.981 129.858 234.731 129.941C234.064 129.941 233.647 129.941 233.481 129.941V128.442H233.231H215.732L215.232 127.942H208.733H208.483V126.942C208.316 126.942 207.9 126.942 207.233 126.942L206.733 126.443H199.234H198.984V124.943H198.734H194.234C193.984 125.027 193.901 124.943 193.984 124.693C193.984 124.027 193.984 123.61 193.984 123.444H193.734H189.234C188.984 123.527 188.901 123.444 188.984 123.194C188.984 122.528 188.984 122.111 188.984 121.945C188.818 121.945 188.401 121.945 187.735 121.945L187.235 121.445H184.735H184.485V119.945H184.235H181.235C180.985 120.029 180.902 119.945 180.985 119.696C180.985 119.029 180.985 118.613 180.985 118.446C180.735 118.446 180.152 118.446 179.235 118.446L178.735 117.946C178.069 117.946 177.652 117.946 177.485 117.946V116.447H175.986V114.948H175.736H173.236H172.986V113.448H170.986V111.949H169.486V110.45C169.319 110.45 168.903 110.45 168.236 110.45L167.486 109.7C167.486 109.034 167.486 108.617 167.486 108.451H165.986V106.951C165.82 106.951 165.403 106.951 164.736 106.951L164.237 106.452C163.57 106.452 163.153 106.452 162.987 106.452V105.702L162.487 105.202C162.487 104.536 162.487 104.119 162.487 103.953C161.78 104.119 161.28 103.869 160.987 103.203C160.987 102.537 160.987 102.12 160.987 101.954H159.487V100.454H157.987V98.4552H155.987V98.2054V95.7065V95.4566H154.487V93.4575H152.987V93.2076V90.7088V90.4589H151.488C151.488 90.2923 151.488 89.8758 151.488 89.2094L150.988 88.7097C150.988 87.7934 150.988 87.2104 150.988 86.9605H149.488V86.7106V83.7119V83.4621H147.988V83.2122V79.214V78.9641C147.821 78.9641 147.405 78.9641 146.738 78.9641C146.488 79.0474 146.405 78.9641 146.488 78.7142V74.2163L145.988 73.7165C145.988 73.0501 145.988 72.6336 145.988 72.4671H144.988V70.468H145.988C145.988 70.3014 145.988 69.8849 145.988 69.2185C145.905 68.9686 145.988 68.8853 146.238 68.9686H193.734H193.984V70.9677C194.151 70.9677 194.567 70.9677 195.234 70.9677C195.484 70.8844 195.567 70.9677 195.484 71.2176V75.7156L195.984 76.2154C195.984 76.8817 195.984 77.2982 195.984 77.4648H196.984C196.984 77.6314 196.984 78.0479 196.984 78.7142L197.484 79.214V81.7129V81.9627H198.234L198.984 82.7124V85.2113V85.4612H200.484V85.711V88.7097V88.9596H201.983C201.983 89.1262 201.983 89.5426 201.983 90.209L202.483 90.7088C202.483 91.3751 202.483 91.7916 202.483 91.9582H203.983V93.4575H205.483V95.4566H206.983V96.9559H208.983V98.4552H210.483V100.454H211.983V101.954H213.982V103.453H214.232H216.732H216.982V104.952C217.149 104.952 217.565 104.952 218.232 104.952L218.732 105.452C219.399 105.452 219.815 105.452 219.982 105.452C219.815 106.162 220.065 106.662 220.732 106.951H223.232H223.482C223.482 107.118 223.482 107.534 223.482 108.201C223.398 108.451 223.482 108.534 223.732 108.451H226.731H226.981V108.201V100.704L226.231 99.9546C225.605 100.121 225.355 100.038 225.481 99.7047V67.7192V67.4693H226.481C226.481 67.3027 226.481 66.8863 226.481 66.2199L226.981 65.7201V61.2222V60.9723Z" fill="white" stroke="white"/>
</g>
<defs>
<clipPath id="clip0_168_237">
<rect width="637.948" height="845.116" fill="white"/>
</clipPath>
</defs>
</svg>
